#define x11pgp_width 64
#define x11pgp_height 64
static char x11pgp_bits[] = {
   0x00, 0x00, 0x00, 0x00, 0x00, 0x00, 0x00, 0x00, 0x00, 0x00, 0x00, 0x00,
   0x00, 0x00, 0x00, 0x00, 0x00, 0x00, 0x00, 0x00, 0x00, 0x00, 0x00, 0x00,
   0x00, 0x00, 0x00, 0x00, 0x00, 0x00, 0x00, 0x00, 0x00, 0x00, 0x00, 0xff,
   0xff, 0xff, 0x07, 0x00, 0x00, 0x00, 0xc0, 0x88, 0x88, 0x88, 0x06, 0x00,
   0x00, 0x00, 0x30, 0x22, 0x22, 0x22, 0x05, 0x00, 0x00, 0x00, 0x8c, 0x88,
   0x88, 0x88, 0x06, 0x00, 0x00, 0x00, 0x23, 0x22, 0x22, 0x62, 0x05, 0x00,
   0x00, 0xc0, 0xff, 0xff, 0xff, 0xbf, 0x06, 0x00, 0x00, 0x40, 0x00, 0x00,
   0x00, 0x60, 0x05, 0x00, 0x00, 0x40, 0x00, 0x00, 0x00, 0xa0, 0x06, 0x00,
   0x00, 0x40, 0x00, 0x00, 0x00, 0x60, 0x05, 0x00, 0x00, 0x40, 0xfc, 0xff,
   0xff, 0xa3, 0x06, 0x00, 0x00, 0x40, 0x04, 0x00, 0x00, 0x62, 0x05, 0x00,
   0x00, 0x40, 0x04, 0x00, 0x00, 0xa2, 0x06, 0x00, 0x00, 0x40, 0x04, 0x00,
   0x00, 0x62, 0x05, 0x00, 0x00, 0x40, 0x04, 0x00, 0x00, 0xa2, 0x06, 0x00,
   0x00, 0x40, 0x04, 0x00, 0x00, 0x62, 0x05, 0x00, 0x00, 0x40, 0x04, 0x00,
   0x00, 0xa2, 0x06, 0x00, 0x00, 0x40, 0x04, 0x00, 0x00, 0x62, 0x05, 0x00,
   0x00, 0x40, 0x04, 0x00, 0x00, 0xa2, 0x06, 0x00, 0x00, 0x40, 0x04, 0x00,
   0x00, 0x62, 0x05, 0x00, 0x00, 0x40, 0x04, 0x00, 0x00, 0xa2, 0x06, 0x00,
   0x00, 0x40, 0x04, 0x00, 0x00, 0x62, 0x05, 0x00, 0x00, 0x40, 0x04, 0x00,
   0x00, 0xa2, 0x06, 0x00, 0x00, 0x40, 0x04, 0x70, 0x00, 0x62, 0x05, 0x00,
   0x00, 0x40, 0x04, 0xfc, 0x01, 0xa2, 0x06, 0x00, 0x00, 0x40, 0x04, 0xaf,
   0x07, 0x62, 0x05, 0x00, 0x00, 0x40, 0x04, 0x23, 0x06, 0xa2, 0x06, 0x00,
   0x00, 0x40, 0x84, 0x21, 0x0c, 0x62, 0x05, 0x00, 0x00, 0x40, 0x84, 0x21,
   0x0c, 0xa2, 0x06, 0x00, 0x00, 0x40, 0xc4, 0x70, 0x18, 0x62, 0x05, 0x00,
   0x00, 0x40, 0xc4, 0xff, 0x1f, 0xa2, 0x06, 0x00, 0x00, 0x40, 0xc4, 0x70,
   0x18, 0x62, 0x05, 0x00, 0x00, 0x40, 0x84, 0x21, 0x0c, 0xa2, 0x06, 0x00,
   0x00, 0x40, 0x84, 0x21, 0x0c, 0x62, 0x05, 0x00, 0x00, 0x40, 0x04, 0x23,
   0x06, 0xa2, 0x06, 0x00, 0x00, 0x40, 0x04, 0xaf, 0x07, 0x62, 0x05, 0x00,
   0x00, 0x40, 0x04, 0xfc, 0x01, 0xa2, 0x06, 0x00, 0x00, 0x40, 0x04, 0x70,
   0x00, 0x62, 0x05, 0x00, 0x00, 0x40, 0x04, 0x00, 0x00, 0xa2, 0x06, 0x00,
   0x00, 0x40, 0x04, 0x00, 0x00, 0x62, 0x05, 0x00, 0x00, 0x40, 0x04, 0x00,
   0x00, 0xa2, 0x06, 0x00, 0x00, 0x40, 0x04, 0x00, 0x00, 0x62, 0x05, 0x00,
   0x00, 0x40, 0x04, 0x00, 0x00, 0xa2, 0x06, 0x00, 0x00, 0x40, 0x04, 0x00,
   0x00, 0x62, 0x05, 0x00, 0x00, 0x40, 0x04, 0x00, 0x00, 0xa2, 0x06, 0x00,
   0x00, 0x40, 0x04, 0x00, 0x00, 0x62, 0x05, 0x00, 0x00, 0x40, 0x04, 0x00,
   0x00, 0xa2, 0x06, 0x00, 0x00, 0x40, 0x04, 0x00, 0x00, 0x62, 0x05, 0x00,
   0x00, 0x40, 0x04, 0x00, 0x00, 0xa2, 0x02, 0x00, 0x00, 0x40, 0x04, 0x00,
   0x00, 0x62, 0x03, 0x00, 0x00, 0x40, 0x04, 0x00, 0x00, 0xa2, 0x01, 0x00,
   0x00, 0x40, 0xfc, 0xff, 0xff, 0x63, 0x01, 0x00, 0x00, 0x40, 0x00, 0x00,
   0x00, 0xa0, 0x00, 0x00, 0x00, 0x40, 0x00, 0x00, 0x00, 0x60, 0x00, 0x00,
   0x00, 0x40, 0x00, 0x00, 0x00, 0x60, 0x00, 0x00, 0x00, 0xc0, 0xff, 0xff,
   0xff, 0x3f, 0x00, 0x00, 0x00, 0x00, 0x00, 0x00, 0x00, 0x00, 0x00, 0x00,
   0x00, 0x00, 0x00, 0x00, 0x00, 0x00, 0x00, 0x00, 0x00, 0x00, 0x00, 0x00,
   0x00, 0x00, 0x00, 0x00, 0x00, 0x00, 0x00, 0x00, 0x00, 0x00, 0x00, 0x00,
   0x00, 0x00, 0x00, 0x00, 0x00, 0x00, 0x00, 0x00};
